# xmcd
#
# Track frame offsets: 
#        150
#        19310
#        37647
#        52800
#        69925
#        92592
#        116502
#        136657
#        156117
#        182090
#        201932
#        221575
#
# Disc length: 3209 seconds
#
# Revision: 0
# Processed by: cddbd v1.5.2PL0 Copyright (c) Steve Scherf et al.
# Submitted via: ExactAudioCopy v0.99pb5
#
DISCID=950c870c
DTITLE=Fleetwood Mac - Blues Jam in Chicago (1998 Columbia 480527 2 CD
DTITLE=1)
DYEAR=1900
DGENRE=Blues
TTITLE0=Watch Out (P. A. Green)
TTITLE1=Ooh Baby (C. Burnett)
TTITLE2=South Indiana - Take 1 (W. Horton)
TTITLE3=South Indiana - Take 2 (W. Horton)
TTITLE4=Last Night (W. Jacobs)
TTITLE5=Red Hot Jam (P. A. Green)
TTITLE6=I'm Worried (E. James)
TTITLE7=I Held My Baby Last Night (E. James)
TTITLE8=Madison Blues (E. James)
TTITLE9=I Can't Hold Out (E. James)
TTITLE10=I Need Your Love (Rogers)
TTITLE11=I Got The Blues (W. Horton)
EXTD=
EXTT0=
EXTT1=
EXTT2=
EXTT3=
EXTT4=
EXTT5=
EXTT6=
EXTT7=
EXTT8=
EXTT9=
EXTT10=
EXTT11=
PLAYORDER=
